<?xml version="1.0" standalone="no"?>
<!DOCTYPE svg PUBLIC "-//W3C//DTD SVG 20010904//EN" "http://www.w3.org/TR/2001/REC-SVG-20010904/DTD/svg10.dtd">
<svg version="1.0" xmlns="http://www.w3.org/2000/svg" width="646.000000pt" height="756.000000pt" viewBox="0 0 646.000000 756.000000" preserveAspectRatio="xMidYMid meet">
    <g transform="translate(0.000000,756.000000) scale(0.100000,-0.100000)" fill="#000000" stroke="none">
        <path fill="#4052B5" d="M1281 7504 c-214 -46 -390 -216 -446 -429 -19 -75 -19 -201 0 -284 29 -123 123 -262 230 -340 l30 -22 -25 -17 c-274 -190 -490 -407 -652 -657 -129 -198 -244 -470 -301 -710 -91 -382 -73 -816 47 -1187 19 -57 114 -296 211 -533 270 -653 279 -686 279 -1000 0 -168 -4 -216 -22 -301 -33 -152 -85 -293 -165 -444 -130 -248 -145 -280 -168 -363 -31 -112 -32 -296 -1 -410 76 -278 297 -495 577 -567 101 -26 261 -28 366 -4 44 10 382 143 838 331 420 172 765 312 767 310 2 -2 13 -37 23 -78 88 -343 359 -617 706 -712 345 -95 740 22 986 292 302 330 343 837 99 1208 l-22 33 24 10 c12 6 313 129 668 275 355 146 669 280 698 298 131 79 233 191 302 332 60 124 82 219 82 350 0 306 -168 582 -436 717 -33 17 -145 58 -250 92 -105 35 -230 82 -278 105 -271 129 -523 366 -675 632 -27 48 -134 293 -238 545 -253 616 -317 740 -495 964 -78 97 -264 282 -360 357 -431 336 -992 511 -1520 473 -78 -6 -154 -13 -168 -17 -23 -5 -24 -4 -18 23 4 16 9 72 12 124 11 178 -41 315 -166 440 -148 150 -340 208 -539 164z"/>
    </g>
</svg>
