<?xml version="1.0" standalone="no"?>
<!DOCTYPE svg PUBLIC "-//W3C//DTD SVG 20010904//EN" "http://www.w3.org/TR/2001/REC-SVG-20010904/DTD/svg10.dtd">
<svg version="1.0" xmlns="http://www.w3.org/2000/svg" width="5082.000000pt" height="781.000000pt" viewBox="0 0 5082.000000 781.000000" preserveAspectRatio="xMidYMid meet">
    <g transform="translate(0.000000,781.000000) scale(0.100000,-0.100000)" fill="#FFFFFF" stroke="none">
        <path fill="#4052B5" d="M45570 7540 c-283 -43 -490 -282 -490 -565 0 -200 118 -404 284 -491 31 -16 55 -32 53 -35 -1 -4 -39 -34 -85 -68 -439 -325 -739 -810 -843 -1365 -27 -142 -37 -465 -19 -617 31 -272 65 -381 300 -954 259 -633 265 -653 265 -955 0 -149 -4 -215 -18 -280 -32 -153 -79 -282 -161 -440 -44 -85 -95 -184 -113 -220 -101 -198 -102 -473 -3 -671 115 -230 303 -375 550 -425 98 -19 249 -15 343 10 31 9 363 142 738 296 374 154 683 280 687 280 4 0 16 -30 26 -66 43 -151 158 -332 273 -432 263 -226 594 -301 920 -206 153 44 272 114 392 228 93 90 150 169 205 287 68 144 90 246 89 409 -1 162 -28 283 -96 422 l-42 88 45 19 c25 10 326 135 670 276 344 141 657 273 695 293 102 53 247 200 302 307 60 117 84 203 90 325 13 240 -73 452 -250 616 -94 88 -205 147 -372 198 -66 21 -151 49 -190 63 -322 119 -616 373 -784 677 -27 50 -136 300 -241 554 -206 500 -223 539 -308 676 -338 546 -876 904 -1521 1013 -145 25 -513 24 -653 0 -137 -24 -128 -29 -105 56 32 125 13 277 -51 402 -102 201 -356 329 -582 295z"/>
        <path fill="#FFF" stroke="#666" stroke-width="50" d="M19237 6013 c-4 -3 -7 -1252 -7 -2775 l0 -2768 640 0 640 0 0 2775 0 2775 -633 0 c-349 0 -637 -3 -640 -7z"/>
        <path fill="#FFF" stroke="#666" stroke-width="50" d="M30710 3245 l0 -2775 640 0 640 0 0 1188 c0 1271 1 1296 51 1444 43 129 97 218 188 308 131 131 259 188 464 210 75 8 131 8 199 1 345 -39 574 -235 670 -576 l23 -80 3 -1247 3 -1248 640 0 640 0 -4 1348 c-3 1322 -3 1349 -25 1479 -84 520 -288 873 -657 1138 -428 307 -1127 349 -1655 99 -185 -88 -377 -237 -503 -394 l-37 -45 0 963 0 962 -640 0 -640 0 0 -2775z"/>
        <path fill="#4052B5" d="M300 3100 l0 -2630 635 0 635 0 0 944 0 944 538 5 c576 5 639 9 881 63 482 108 880 386 1100 769 100 174 176 412 201 627 18 149 8 429 -20 578 -79 425 -298 769 -636 996 -234 156 -489 250 -832 306 -135 22 -154 22 -1319 25 l-1183 4 0 -2631z m2239 1571 c223 -58 362 -183 427 -385 22 -66 27 -106 31 -216 6 -166 -10 -251 -68 -368 -71 -145 -189 -239 -369 -293 -72 -22 -92 -23 -532 -27 l-458 -3 0 654 c0 359 3 657 7 661 4 4 204 6 443 3 408 -3 440 -5 519 -26z"/>
        <path fill="#4052B5" d="M4970 3100 l0 -2630 640 0 640 0 0 1085 0 1085 1000 0 1000 0 0 -1085 0 -1085 640 0 640 0 0 2630 0 2630 -640 0 -640 0 0 -1030 0 -1030 -1000 0 -1000 0 0 1030 0 1030 -640 0 -640 0 0 -2630z"/>
        <path fill="#4052B5" d="M10460 3100 l0 -2630 635 0 635 0 0 944 0 944 538 5 c576 5 639 9 881 63 343 77 630 232 866 469 132 131 199 224 275 380 127 258 177 510 167 834 -8 275 -54 479 -158 700 -141 299 -362 524 -680 690 -181 95 -394 160 -657 203 -135 22 -154 22 -1319 25 l-1183 4 0 -2631z m2239 1571 c115 -30 199 -72 267 -134 126 -114 183 -252 191 -457 15 -357 -130 -578 -437 -671 -72 -22 -92 -23 -532 -27 l-458 -3 0 654 c0 359 3 657 7 661 4 4 204 6 443 3 408 -3 440 -5 519 -26z"/>
        <path fill="#FFF" stroke="#666" stroke-width="50" d="M15130 3100 l0 -2630 640 0 640 0 0 1065 0 1065 805 0 805 0 0 495 0 495 -802 2 -803 3 0 555 0 555 1073 3 1072 2 0 510 0 510 -1715 0 -1715 0 0 -2630z"/>
        <path fill="#FFF" stroke="#666" stroke-width="50" d="M22776 4695 c-704 -100 -1262 -603 -1481 -1335 -112 -373 -137 -881 -65 -1300 101 -589 393 -1067 829 -1361 433 -292 1009 -369 1511 -203 273 91 532 273 692 487 l58 79 0 -296 0 -296 640 0 640 0 0 2090 0 2090 -640 0 -640 0 -2 -291 -3 -291 -43 61 c-128 182 -349 356 -578 456 -95 41 -223 79 -341 101 -122 22 -447 28 -577 9z m854 -1126 c156 -39 317 -138 441 -274 176 -192 259 -459 246 -790 -12 -304 -95 -519 -270 -702 -135 -140 -281 -223 -456 -258 -128 -26 -337 -17 -451 20 -236 76 -406 216 -520 428 -80 147 -118 301 -127 512 -19 439 134 771 446 963 93 57 239 109 344 122 97 12 254 2 347 -21z"/>
        <path fill="#FFF" stroke="#666" stroke-width="50" d="M27855 4699 c-696 -66 -1217 -427 -1369 -950 -36 -124 -50 -261 -42 -408 14 -287 94 -485 266 -661 242 -247 448 -339 1170 -520 456 -115 702 -208 774 -292 122 -142 63 -361 -120 -452 -85 -42 -175 -59 -319 -59 -100 1 -148 6 -208 22 -221 59 -386 215 -428 404 l-12 57 -629 0 -628 0 0 -36 c0 -57 37 -225 71 -321 72 -203 168 -353 334 -518 292 -293 685 -471 1185 -537 124 -16 538 -16 655 0 313 44 578 131 790 262 280 172 467 418 546 717 26 99 36 322 20 446 -41 309 -186 542 -467 753 -171 127 -521 256 -1079 395 -486 122 -635 188 -702 311 -26 48 -25 198 2 253 66 134 232 201 475 192 192 -7 316 -55 430 -167 71 -69 120 -161 144 -272 l6 -28 591 0 591 0 -7 53 c-22 167 -85 377 -155 517 -100 198 -285 414 -467 543 -225 160 -528 263 -867 296 -126 13 -419 12 -551 0z"/>
        <path fill="#FFF" stroke="#666" stroke-width="50" d="M37390 4704 c-340 -40 -571 -103 -813 -225 -298 -150 -537 -361 -724 -639 -204 -305 -321 -686 -342 -1122 -28 -570 90 -1048 357 -1443 192 -285 415 -480 727 -635 228 -113 428 -173 705 -211 144 -20 518 -17 660 4 478 74 859 262 1161 574 164 169 302 371 382 559 38 89 97 259 97 281 0 11 -121 13 -679 13 l-680 0 -38 -72 c-77 -146 -231 -265 -399 -308 -322 -83 -667 18 -843 247 -92 119 -157 290 -177 462 l-7 61 1451 0 1450 0 9 78 c13 120 10 515 -5 627 -69 522 -310 986 -667 1284 -286 238 -615 382 -1020 447 -95 15 -521 28 -605 18z m423 -1040 c221 -46 420 -194 508 -378 39 -81 69 -202 69 -277 l0 -39 -800 0 c-770 0 -800 1 -800 18 0 47 45 186 89 277 115 236 326 380 610 415 82 11 234 3 324 -16z"/>
        <path fill="#FFF" stroke="#666" stroke-width="50" d="M42860 4693 c-173 -12 -381 -68 -536 -144 -215 -105 -440 -292 -590 -492 l-74 -98 0 346 0 345 -640 0 -640 0 0 -2090 0 -2090 640 0 640 0 0 1029 c0 884 2 1047 16 1153 9 67 20 128 25 134 5 6 10 20 12 32 2 12 6 25 10 28 4 4 7 15 7 24 0 9 18 52 40 96 101 198 323 325 640 364 46 5 191 10 322 10 l238 0 0 680 0 680 -32 -2 c-18 -1 -53 -3 -78 -5z"/>
    </g>
</svg>
