<?xml version="1.0" standalone="no"?>
<!DOCTYPE svg PUBLIC "-//W3C//DTD SVG 20010904//EN"
 "http://www.w3.org/TR/2001/REC-SVG-20010904/DTD/svg10.dtd">
<svg version="1.0" xmlns="http://www.w3.org/2000/svg"
 width="756.000000pt" height="756.000000pt" viewBox="0 0 756.000000 756.000000"
 preserveAspectRatio="xMidYMid meet">
<metadata>
Created by potrace 1.14, written by Peter Selinger 2001-2017
</metadata>
<g transform="translate(0.000000,756.000000) scale(0.100000,-0.100000)"
fill="#000000" stroke="none">
<path d="M1805 7501 c-366 -99 -543 -497 -372 -840 31 -63 146 -194 192 -219
11 -6 18 -12 15 -14 -3 -2 -45 -33 -95 -68 -300 -215 -526 -477 -693 -805 -28
-55 -60 -120 -70 -145 -23 -51 -99 -275 -106 -311 -2 -13 -11 -53 -20 -89 -8
-36 -18 -87 -22 -115 -3 -27 -8 -58 -10 -69 -11 -56 -17 -177 -17 -301 0 -153
7 -221 39 -415 20 -122 112 -404 174 -535 11 -23 105 -250 226 -550 80 -197
126 -337 139 -430 3 -22 9 -65 14 -95 9 -59 8 -302 -3 -385 -10 -79 -55 -253
-88 -339 -30 -78 -55 -128 -175 -356 -88 -166 -107 -241 -107 -415 0 -131 2
-146 32 -235 75 -217 210 -374 408 -473 180 -91 386 -107 589 -47 34 10 628
252 690 280 11 5 72 30 135 56 63 25 129 52 145 59 17 8 98 41 180 75 83 33
160 65 173 70 82 36 214 90 217 90 2 0 9 -26 16 -57 46 -224 195 -446 395
-589 98 -70 262 -142 360 -159 21 -3 62 -10 89 -15 74 -12 250 -5 330 14 360
84 626 326 741 674 34 104 39 143 39 312 0 119 -5 160 -23 230 -27 100 -62
181 -114 268 -37 62 -37 63 -15 71 12 5 112 46 222 91 457 188 662 272 690
284 113 48 286 118 292 117 1 0 35 16 74 35 222 108 362 261 432 474 61 182
58 350 -10 540 -14 41 -35 86 -45 99 -10 13 -18 29 -18 37 0 7 -3 14 -7 16 -5
2 -21 22 -36 44 -34 50 -137 150 -192 185 -102 66 -137 81 -369 155 -387 122
-675 339 -881 659 -53 83 -135 246 -135 268 0 7 -4 17 -9 23 -4 5 -30 63 -56
129 -26 66 -53 134 -61 150 -20 47 -94 225 -114 275 -67 171 -151 355 -203
446 -31 55 -151 234 -174 259 -10 11 -36 42 -57 68 -72 90 -198 211 -333 322
-30 25 -43 34 -133 94 -233 157 -527 279 -810 336 -73 14 -89 17 -215 32 -124
15 -507 5 -538 -14 -7 -4 -7 6 -3 28 14 63 23 141 20 168 -10 97 -17 138 -26
149 -6 6 -8 12 -4 12 3 0 -5 25 -18 55 -68 153 -191 267 -347 322 -100 35
-244 41 -344 14z"/>
</g>
</svg>
